<?xml version="1.0" encoding="UTF-8" standalone="no"?>
<svg width="228.6mm" height="304.8mm"
 viewBox="0 0 2592 3455"
 xmlns="http://www.w3.org/2000/svg" xmlns:xlink="http://www.w3.org/1999/xlink"  version="1.2" baseProfile="tiny">
<desc>Generated with Qt</desc>
<defs>
</defs>
>
<g transform="matrix(0.1328740717518271,0.0,0.0,0.1328740717518271,64.66536825254867,173.61642708598023)">
    <text x="64.68253462950832" y="182.0037016641453" font-family="Palatino" font-size="12" fill="black">Flûte</text>
</g>
<g transform="matrix(0.1328740717518271,0.0,0.0,0.1328740717518271,477.283591065856,255.6051380264449)">
    <text x="477.2669949679029" y="266.3789970978171" font-family="Helsinki Text Std" font-size="96" fill="black">p</text>
</g>
<g transform="matrix(0.1328740717518271,0.0,0.0,0.1328740717518271,486.49692937438016,257.94713929112254)">
    <text x="486.49875610311415" y="266.3639357344429" font-family="Palatino" font-size="12" fill="black">espress.</text>
</g>
<g transform="matrix(0.17716542900243615,0.0,0.0,0.17716542900243615,0.0,0.166666756667)">
    <text x="104.53506705162742" y="183.35029258381064" font-family="Helsinki Std" font-size="96" fill="black">&#xf026;</text>
</g>
<g transform="matrix(0.17716542900243615,0.0,0.0,0.17716542900243615,0.0,0.166666756667)">
    <text x="124.34705870126092" y="170.5938535159555" font-family="Helsinki Std" font-size="96" fill="black">&#xf023;</text>
</g>
<g transform="matrix(0.17716542900243615,0.0,0.0,0.17716542900243615,0.0,0.166666756667)">
    <text x="186.71814352418116" y="179.11696103474367" font-family="Helsinki Std" font-size="96" fill="black">&#xf0b7;</text>
</g>
<g transform="matrix(0.17716542900243615,0.0,0.0,0.17716542900243615,0.0,0.166666756667)">
    <text x="300.4536511424475" y="179.11696103474367" font-family="Helsinki Std" font-size="96" fill="black">&#xf0b7;</text>
</g>
<g transform="matrix(0.17716542900243615,0.0,0.0,0.17716542900243615,0.0,0.166666756667)">
    <text x="414.1891587607138" y="179.11696103474367" font-family="Helsinki Std" font-size="96" fill="black">&#xf0b7;</text>
</g>
<g transform="matrix(0.17716542900243615,0.0,0.0,0.17716542900243615,0.0,0.166666756667)">
    <text x="482.43046333167365" y="179.11696103474367" font-family="Helsinki Std" font-size="96" fill="black">&#xf0ee;</text>
</g>
<g transform="matrix(0.17716542900243615,0.0,0.0,0.17716542900243615,0.0,0.166666756667)">
    <text x="489.7117935960689" y="176.97207304988305" font-family="Helsinki Special Std" font-size="96" fill="black">&#xf0aa;</text>
</g>
<g transform="matrix(0.17716542900243615,0.0,0.0,0.17716542900243615,0.0,0.166666756667)">
    <text x="619.7032943627524" y="170.5938535159555" font-family="Helsinki Std" font-size="96" fill="black">&#xf06a;</text>
</g>
<g transform="matrix(0.17716542900243615,0.0,0.0,0.17716542900243615,0.0,0.166666756667)">
    <text x="685.7997109488516" y="189.72851211773826" font-family="Helsinki Std" font-size="96" fill="black">&#xf04a;</text>
</g>
<g transform="matrix(0.17716542900243615,0.0,0.0,0.17716542900243615,0.0,0.166666756667)">
    <text x="715.3765873716662" y="179.11696103474367" font-family="Helsinki Std" font-size="96" fill="black">&#xf0ce;</text>
</g>
<g transform="matrix(0.17716542900243615,0.0,0.0,0.17716542900243615,0.0,0.166666756667)">
    <text x="756.5245700285974" y="179.11696103474367" font-family="Helsinki Std" font-size="96" fill="black">&#xf0e4;</text>
</g>
<g transform="matrix(0.17716542900243615,0.0,0.0,0.17716542900243615,0.0,0.166666756667)">
    <text x="786.2707797133747" y="179.11696103474367" font-family="Helsinki Std" font-size="96" fill="black">&#xf0e4;</text>
</g>
</svg>