<?xml version="1.0" encoding="UTF-8" standalone="no"?>
<svg width="228.6mm" height="304.8mm"
 viewBox="0 0 2592 3455"
 xmlns="http://www.w3.org/2000/svg" xmlns:xlink="http://www.w3.org/1999/xlink"  version="1.2" baseProfile="tiny">
<desc>Generated with Qt</desc>
<defs>
</defs>
>
<g transform="matrix(0.17716542900243615,0.0,0.0,0.17716542900243615,0.0,0.166666756667)">
    <text x="565.3473172727323" y="181.20540459895005" font-family="Helsinki Std" font-size="96" fill="black">&#xf0cf;</text>
</g>
<g transform="matrix(0.17716542900243615,0.0,0.0,0.17716542900243615,0.0,0.166666756667)">
    <text x="614.9619630277974" y="181.20540459895005" font-family="Helsinki Std" font-size="96" fill="black">&#xf0cf;</text>
</g>
<g transform="matrix(0.17716542900243615,0.0,0.0,0.17716542900243615,0.0,0.166666756667)">
    <text x="644.7081727125748" y="183.35029258381064" font-family="Helsinki Std" font-size="96" fill="black">&#xf0cf;</text>
</g>
<g transform="matrix(0.17716542900243615,0.0,0.0,0.17716542900243615,0.0,0.166666756667)">
    <text x="685.7997109488516" y="179.11696103474367" font-family="Helsinki Std" font-size="96" fill="black">&#xf0cf;</text>
</g>
<g transform="matrix(0.17716542900243615,0.0,0.0,0.17716542900243615,0.0,0.166666756667)">
    <text x="482.43046333167365" y="244.98759993822597" font-family="Helsinki Std" font-size="96" fill="black">&#xf0fa;</text>
</g>
<g transform="matrix(0.17716542900243615,0.0,0.0,0.17716542900243615,0.0,0.166666756667)">
    <text x="565.3473172727323" y="244.98759993822597" font-family="Helsinki Std" font-size="96" fill="black">&#xf0cf;</text>
</g>
<g transform="matrix(0.17716542900243615,0.0,0.0,0.17716542900243615,0.0,0.166666756667)">
    <text x="614.9619630277974" y="244.98759993822597" font-family="Helsinki Std" font-size="96" fill="black">&#xf0cf;</text>
</g>
<g transform="matrix(0.17716542900243615,0.0,0.0,0.17716542900243615,0.0,0.166666756667)">
    <text x="644.7081727125748" y="247.1324879230866" font-family="Helsinki Std" font-size="96" fill="black">&#xf0cf;</text>
</g>
<g transform="matrix(0.17716542900243615,0.0,0.0,0.17716542900243615,0.0,0.166666756667)">
    <text x="685.7997109488516" y="242.89915637401958" font-family="Helsinki Std" font-size="96" fill="black">&#xf0cf;</text>
</g>
<g transform="matrix(0.17716542900243615,0.0,0.0,0.17716542900243615,0.0,0.166666756667)">
    <text x="715.3765873716662" y="244.98759993822597" font-family="Helsinki Std" font-size="96" fill="black">&#xf0cf;</text>
</g>
</svg>