<?xml version="1.0" encoding="UTF-8" standalone="no"?>
<svg width="228.6mm" height="304.8mm"
 viewBox="0 0 2592 3455"
 xmlns="http://www.w3.org/2000/svg" xmlns:xlink="http://www.w3.org/1999/xlink"  version="1.2" baseProfile="tiny">
<desc>Generated with Qt</desc>
<defs>
</defs>
>
<g transform="matrix(0.1328740717518271,0.0,0.0,0.1328740717518271,57.93303128376207,224.64012130537586)">
    <text x="57.92679199756733" y="233.07691475329761" font-family="Palatino" font-size="12" fill="black">Violon</text>
</g>
<g transform="matrix(0.17716542900243615,0.0,0.0,0.17716542900243615,0.0,0.166666756667)">
    <text x="104.53506705162742" y="234.37604885523137" font-family="Helsinki Std" font-size="96" fill="black">&#xf026;</text>
</g>
<g transform="matrix(0.17716542900243615,0.0,0.0,0.17716542900243615,0.0,0.166666756667)">
    <text x="124.34705870126092" y="221.6196097873762" font-family="Helsinki Std" font-size="96" fill="black">&#xf023;</text>
</g>
<g transform="matrix(0.17716542900243615,0.0,0.0,0.17716542900243615,0.0,0.166666756667)">
    <text x="186.71814352418116" y="230.14271730616437" font-family="Helsinki Std" font-size="96" fill="black">&#xf0b7;</text>
</g>
<g transform="matrix(0.17716542900243615,0.0,0.0,0.17716542900243615,0.0,0.166666756667)">
    <text x="300.4536511424475" y="230.14271730616437" font-family="Helsinki Std" font-size="96" fill="black">&#xf0b7;</text>
</g>
<g transform="matrix(0.17716542900243615,0.0,0.0,0.17716542900243615,0.0,0.166666756667)">
    <text x="414.1891587607138" y="230.14271730616437" font-family="Helsinki Std" font-size="96" fill="black">&#xf0b7;</text>
</g>
<g transform="matrix(0.17716542900243615,0.0,0.0,0.17716542900243615,0.0,0.166666756667)">
    <text x="490.5584599058822" y="244.98759993822597" font-family="Helsinki Special Std" font-size="96" fill="black">&#xf0aa;</text>
</g>
<g transform="matrix(0.17716542900243615,0.0,0.0,0.17716542900243615,0.0,0.166666756667)">
    <text x="619.7032943627524" y="234.37604885523137" font-family="Helsinki Std" font-size="96" fill="black">&#xf06a;</text>
</g>
<g transform="matrix(0.17716542900243615,0.0,0.0,0.17716542900243615,0.0,0.166666756667)">
    <text x="690.5974867044608" y="232.2311608703708" font-family="Helsinki Std" font-size="96" fill="black">&#xf06a;</text>
</g>
<g transform="matrix(0.17716542900243615,0.0,0.0,0.17716542900243615,0.0,0.166666756667)">
    <text x="756.5245700285974" y="230.14271730616437" font-family="Helsinki Std" font-size="96" fill="black">&#xf0e4;</text>
</g>
<g transform="matrix(0.17716542900243615,0.0,0.0,0.17716542900243615,0.0,0.166666756667)">
    <text x="786.2707797133747" y="230.14271730616437" font-family="Helsinki Std" font-size="96" fill="black">&#xf0e4;</text>
</g>
</svg>