<?xml version="1.0" encoding="UTF-8" standalone="no"?>
<svg width="228.6mm" height="304.8mm"
 viewBox="0 0 2592 3455"
 xmlns="http://www.w3.org/2000/svg" xmlns:xlink="http://www.w3.org/1999/xlink" version="1.2" baseProfile="tiny">
<desc>Staff Lines and Barlines - Universal Structure</desc>
<defs>
</defs>
<g fill="none" stroke="black" stroke-width="1" fill-rule="evenodd" stroke-linecap="square" stroke-linejoin="bevel">

<!-- Staff Lines (stroke-width 2.25) -->
<g fill="#000000" fill-opacity="1" stroke="#000000" stroke-opacity="1" stroke-width="2.25" stroke-linecap="butt" stroke-linejoin="bevel" transform="matrix(0.531496,0,0,0.531496,0,0)">
<polyline fill="none" vector-effect="none" points="564,1073 4608,1073 " />
<polyline fill="none" vector-effect="none" points="564,1049 4608,1049 " />
<polyline fill="none" vector-effect="none" points="564,1025 4608,1025 " />
<polyline fill="none" vector-effect="none" points="564,1001 4608,1001 " />
<polyline fill="none" vector-effect="none" points="564,977 4608,977 " />
<polyline fill="none" vector-effect="none" points="564,1393 4608,1393 " />
<polyline fill="none" vector-effect="none" points="564,1369 4608,1369 " />
<polyline fill="none" vector-effect="none" points="564,1345 4608,1345 " />
<polyline fill="none" vector-effect="none" points="564,1321 4608,1321 " />
<polyline fill="none" vector-effect="none" points="564,1297 4608,1297 " />
</g>

<!-- Regular Barlines (stroke-width 5) -->
<g fill="none" stroke="#000000" stroke-opacity="1" stroke-width="5" stroke-linecap="butt" stroke-linejoin="bevel" transform="matrix(0.531496,0,0,0.531496,0,0)">
<polyline fill="none" vector-effect="none" points="566,977 566,1393 " />
<polyline fill="none" vector-effect="none" points="1422,977 1422,1073 " />
<polyline fill="none" vector-effect="none" points="1422,1297 1422,1393 " />
<polyline fill="none" vector-effect="none" points="2047,977 2047,1073 " />
<polyline fill="none" vector-effect="none" points="2047,1297 2047,1393 " />
<polyline fill="none" vector-effect="none" points="2673,977 2673,1073 " />
<polyline fill="none" vector-effect="none" points="2673,1297 2673,1393 " />
<polyline fill="none" vector-effect="none" points="3403,977 3403,1073 " />
<polyline fill="none" vector-effect="none" points="3403,1297 3403,1393 " />
<polyline fill="none" vector-effect="none" points="4578,977 4578,1073 " />
<polyline fill="none" vector-effect="none" points="4578,1297 4578,1393 " />
</g>

<!-- Thick End Barlines (stroke-width 16) -->
<g fill="none" stroke="#000000" stroke-opacity="1" stroke-width="16" stroke-linecap="butt" stroke-linejoin="bevel" transform="matrix(0.531496,0,0,0.531496,0,0)">
<polyline fill="none" vector-effect="none" points="4600,977 4600,1073 " />
<polyline fill="none" vector-effect="none" points="4600,1297 4600,1393 " />
</g>

</g>
</svg>